<?xml version="1.0" standalone="no"?>
<!DOCTYPE svg PUBLIC "-//W3C//DTD SVG 20010904//EN"
 "http://www.w3.org/TR/2001/REC-SVG-20010904/DTD/svg10.dtd">
<svg version="1.0" xmlns="http://www.w3.org/2000/svg"
 width="416.000000pt" height="313.000000pt" viewBox="0 0 416.000000 313.000000"
 preserveAspectRatio="xMidYMid meet">

<g transform="translate(0.000000,313.000000) scale(0.100000,-0.100000)"
fill="#000000" stroke="none">
<path d="M1741 2760 c-95 -20 -186 -101 -217 -193 -22 -67 -15 -176 16 -237
25 -49 500 -535 533 -546 16 -5 72 46 274 247 273 273 299 306 309 406 8 71
-8 132 -48 196 -39 62 -101 104 -183 124 -60 15 -70 15 -129 0 -82 -20 -140
-58 -181 -120 l-33 -48 -21 35 c-65 104 -198 161 -320 136z m168 -238 c-5 -2
-9 -11 -9 -20 0 -13 -4 -11 -16 6 -12 18 -13 26 -4 38 11 12 14 12 26 -3 7
-10 8 -19 3 -21z m380 0 c-5 -2 -9 -11 -9 -20 0 -13 -4 -11 -16 6 -12 18 -13
26 -4 38 11 12 14 12 26 -3 7 -10 8 -19 3 -21z m-188 -109 c6 -18 25 -45 44
-61 l33 -30 -24 -12 c-28 -16 -64 -84 -65 -126 0 -24 -3 -21 -13 18 -16 58
-40 96 -72 110 l-24 11 30 18 c33 21 55 57 66 114 7 33 9 35 12 15 2 -14 8
-39 13 -57z m-263 -133 c15 0 14 -3 -4 -18 -12 -9 -26 -25 -31 -36 -9 -17 -11
-16 -17 7 -3 14 -16 29 -28 33 l-23 7 22 8 c13 5 26 21 29 36 l7 28 14 -32 c8
-19 20 -33 31 -33z m542 35 c0 -8 10 -21 22 -29 19 -14 20 -16 4 -22 -10 -4
-22 -18 -29 -33 -11 -26 -11 -26 -15 -3 -2 13 -14 28 -28 34 l-24 11 23 11
c12 6 23 22 25 34 4 23 22 21 22 -3z"/>
<path d="M326 1100 l-240 -5 -14 -55 c-11 -43 -11 -59 -2 -74 10 -15 613 -768
640 -799 7 -8 1015 73 1108 89 l32 5 0 142 c0 78 3 201 7 272 l7 130 21 -288
c23 -316 17 -294 95 -334 24 -12 58 -18 105 -18 59 0 78 5 118 28 27 16 50 34
52 40 3 7 14 143 25 302 12 160 23 295 25 300 2 6 4 -121 4 -282 l1 -292 33
-5 c30 -5 1068 -96 1094 -96 6 0 159 183 339 406 l327 407 -11 60 c-6 33 -13
62 -16 64 -2 2 -396 7 -875 10 l-871 6 -36 -42 c-20 -23 -55 -51 -78 -63 -52
-27 -159 -35 -221 -18 -56 16 -122 62 -137 95 l-11 25 -641 -2 c-353 -1 -749
-5 -880 -8z"/>
</g>
</svg>
